<?xml version="1.0" encoding="UTF-8" standalone="no"?>
<!-- Created with Inkscape (http://www.inkscape.org/) -->

<svg
   xmlns:dc="http://purl.org/dc/elements/1.1/"
   xmlns:cc="http://creativecommons.org/ns#"
   xmlns:rdf="http://www.w3.org/1999/02/22-rdf-syntax-ns#"
   xmlns:svg="http://www.w3.org/2000/svg"
   xmlns="http://www.w3.org/2000/svg"
   xmlns:sodipodi="http://sodipodi.sourceforge.net/DTD/sodipodi-0.dtd"
   xmlns:inkscape="http://www.inkscape.org/namespaces/inkscape"
   width="210mm"
   height="297mm"
   viewBox="0 0 210 297"
   version="1.1"
   id="svg2141"
   inkscape:version="0.92.2 5c3e80d, 2017-08-06"
   sodipodi:docname="banner-itch.svg"
   inkscape:export-filename="/home/gilzoide/prog/Godot/GameJam21-10-18/SVGs/banner-itch.png"
   inkscape:export-xdpi="311"
   inkscape:export-ydpi="311">
  <defs
     id="defs2135" />
  <sodipodi:namedview
     id="base"
     pagecolor="#ffffff"
     bordercolor="#666666"
     borderopacity="1.0"
     inkscape:pageopacity="0.0"
     inkscape:pageshadow="2"
     inkscape:zoom="0.98994949"
     inkscape:cx="28.310448"
     inkscape:cy="1116.8339"
     inkscape:document-units="mm"
     inkscape:current-layer="layer1"
     showgrid="false"
     inkscape:window-width="1366"
     inkscape:window-height="739"
     inkscape:window-x="0"
     inkscape:window-y="0"
     inkscape:window-maximized="1" />
  <metadata
     id="metadata2138">
    <rdf:RDF>
      <cc:Work
         rdf:about="">
        <dc:format>image/svg+xml</dc:format>
        <dc:type
           rdf:resource="http://purl.org/dc/dcmitype/StillImage" />
        <dc:title></dc:title>
      </cc:Work>
    </rdf:RDF>
  </metadata>
  <g
     inkscape:label="Camada 1"
     inkscape:groupmode="layer"
     id="layer1">
    <rect
       style="opacity:1;fill:#ffffff;fill-opacity:1;fill-rule:nonzero;stroke:#000000;stroke-width:0.1;stroke-linecap:butt;stroke-linejoin:round;stroke-miterlimit:4;stroke-dasharray:none;stroke-opacity:1"
       id="rect2770"
       width="83.34375"
       height="66.145836"
       x="-30.994047"
       y="-20.122023"
       inkscape:export-xdpi="311.70218"
       inkscape:export-ydpi="311.70218" />
    <flowRoot
       xml:space="preserve"
       id="flowRoot2758"
       style="font-style:normal;font-weight:normal;font-size:40px;line-height:1.25;font-family:sans-serif;letter-spacing:0px;word-spacing:0px;fill:#000000;fill-opacity:1;stroke:none"
       transform="matrix(0.26458333,0,0,0.26458333,26.192414,18.703495)"
       inkscape:export-xdpi="311.70218"
       inkscape:export-ydpi="311.70218"><flowRegion
         id="flowRegion2760"><rect
           id="rect2762"
           width="522.80127"
           height="140.75565"
           x="88.893425"
           y="-130.06947" /></flowRegion><flowPara
         id="flowPara2764"></flowPara></flowRoot>    <path
       style="fill:none;stroke:#fa0000;stroke-width:1.03687155;stroke-linecap:butt;stroke-linejoin:miter;stroke-miterlimit:4;stroke-dasharray:none;stroke-opacity:1"
       d="M -13.238771,24.540198 H 34.365298"
       id="path2756"
       inkscape:connector-curvature="0"
       inkscape:export-xdpi="311.70218"
       inkscape:export-ydpi="311.70218" />
    <g
       transform="matrix(0.51843584,0,0,0.51843584,-284.89398,-109.99041)"
       id="g1412"
       inkscape:export-filename="/home/gilzoide/prog/Godot/GameJam21-10-18/sprites/danca12.png"
       inkscape:export-xdpi="311.70218"
       inkscape:export-ydpi="311.70218">
      <g
         transform="translate(-59.999996,0.04496508)"
         id="g2550">
        <path
           sodipodi:type="star"
           style="opacity:1;fill:#ffff00;fill-opacity:1;fill-rule:nonzero;stroke:#1a0000;stroke-width:0.2034265;stroke-linecap:round;stroke-miterlimit:4;stroke-dasharray:none;stroke-opacity:1"
           id="path2057"
           sodipodi:sides="11"
           sodipodi:cx="583.4209"
           sodipodi:cy="261.81458"
           sodipodi:r1="5.5347929"
           sodipodi:r2="18.44931"
           sodipodi:arg1="0.11031263"
           sodipodi:arg2="0.39591196"
           inkscape:flatsided="false"
           inkscape:rounded="0"
           inkscape:randomized="0"
           d="m 588.92205,262.4239 11.52102,6.50565 -12.72373,-3.62824 6.17487,11.70164 -8.74231,-9.93123 -1.13174,13.18243 -1.98527,-13.08113 -8.07905,10.4779 5.40208,-12.07787 -12.46131,4.44671 11.07431,-7.23997 -12.88719,-2.99628 13.23052,-0.10343 -9.22148,-9.48797 11.18613,7.06595 -2.62801,-12.9673 5.59023,11.99194 4.79982,-12.3296 -1.78052,13.11057 10.70375,-7.77734 -8.58599,10.06669 13.20932,-0.75583 z"
           inkscape:transform-center-x="-0.098733636"
           inkscape:transform-center-y="-0.95743249"
           transform="matrix(1.7717915,-0.49475951,0.49475951,1.7717915,-579.68918,84.266768)" />
        <ellipse
           style="opacity:1;fill:#000000;fill-opacity:1;stroke:#000000;stroke-width:0.20199859;stroke-linecap:round;stroke-miterlimit:4;stroke-dasharray:none;stroke-opacity:1"
           id="ellipse1946"
           cx="573.38971"
           cy="-218.36179"
           rx="14.380455"
           ry="14.380456"
           transform="scale(1,-1)" />
        <path
           sodipodi:nodetypes="cc"
           inkscape:connector-curvature="0"
           id="path1948"
           d="m 562.60393,265.14196 c 4.55681,4.86124 19.64284,10.55876 23.66077,-1.53623"
           style="fill:none;stroke:#000000;stroke-width:3.21810102;stroke-linecap:butt;stroke-linejoin:miter;stroke-miterlimit:4;stroke-dasharray:none;stroke-opacity:1" />
        <path
           sodipodi:nodetypes="cc"
           style="fill:none;stroke:#000000;stroke-width:3.21810102;stroke-linecap:butt;stroke-linejoin:miter;stroke-miterlimit:4;stroke-dasharray:none;stroke-opacity:1"
           d="m 564.07744,271.66186 c 5.00133,2.48804 27.09043,9.81081 22.18726,-8.05613"
           id="path1950"
           inkscape:connector-curvature="0" />
        <path
           sodipodi:nodetypes="csc"
           inkscape:connector-curvature="0"
           id="path1952"
           d="m 590.31022,261.37922 c 0.9604,-1.25286 2.2075,-3.53361 1.38208,-5.70886 -2.19059,-5.77291 -9.58433,-17.04461 -13.03467,-16.64082"
           style="fill:none;stroke:#000000;stroke-width:3.21810102;stroke-linecap:butt;stroke-linejoin:miter;stroke-miterlimit:4;stroke-dasharray:none;stroke-opacity:1" />
        <path
           sodipodi:nodetypes="csc"
           style="fill:none;stroke:#000000;stroke-width:3.21810102;stroke-linecap:butt;stroke-linejoin:miter;stroke-miterlimit:4;stroke-dasharray:none;stroke-opacity:1"
           d="m 589.35444,263.47731 c -1.2875,0.017 -4.41731,-0.21858 -7.04624,-0.80892 -3.13317,-0.70357 -7.54003,-22.05626 -5.76722,-23.10968"
           id="path1954"
           inkscape:connector-curvature="0" />
        <rect
           style="opacity:1;fill:none;fill-opacity:1;stroke:none;stroke-width:3.60394764;stroke-linecap:round;stroke-miterlimit:4;stroke-dasharray:none;stroke-opacity:1"
           id="rect1956"
           width="70"
           height="100"
           x="550"
           y="197" />
        <rect
           y="197"
           x="550"
           height="100"
           width="70"
           id="rect1958"
           style="opacity:1;fill:none;fill-opacity:1;stroke:none;stroke-width:3.60394764;stroke-linecap:round;stroke-miterlimit:4;stroke-dasharray:none;stroke-opacity:1" />
        <path
           inkscape:connector-curvature="0"
           id="path1960"
           d="m 587.48078,263.51219 c -6.76084,-13.18157 -12.86094,-30.18287 -14.00017,-44.57965"
           style="fill:none;stroke:#000000;stroke-width:2.91299868;stroke-linecap:butt;stroke-linejoin:miter;stroke-miterlimit:4;stroke-dasharray:none;stroke-opacity:1"
           sodipodi:nodetypes="cc" />
      </g>
      <path
         transform="matrix(0.26458333,0,0,0.26458333,0,-3)"
         inkscape:connector-curvature="0"
         id="path1170"
         d="m 1953.0978,1058.7382 c -0.012,-1.2155 -1.4305,-1.7775 -5.7653,-2.2836 -3.1625,-0.3693 -9.8,-1.6606 -14.75,-2.8696 -4.95,-1.209 -9.5625,-2.1439 -10.25,-2.0774 -0.6875,0.066 -1.25,-0.2208 -1.25,-0.6382 0,-0.7971 -8.9559,-3.631 -10.25,-3.2434 -0.4125,0.1235 -0.75,-0.135 -0.75,-0.5745 0,-0.4396 -1.569,-1.3665 -3.4865,-2.0599 l -3.4866,-1.2607 2.5034,-4.9402 c 1.3769,-2.7171 2.6432,-4.9401 2.8141,-4.9401 0.1709,0 3.1865,1.1685 6.7012,2.5967 7.9986,3.25 18.8589,6.2167 30.258,8.2655 7.7352,1.3902 8.9167,1.4035 9.7347,0.11 0.63,-0.9962 0.936,-1.0681 0.9464,-0.2222 0.02,1.6295 11.7829,1.7017 15.7002,0.096 1.5483,-0.6345 3.3197,-1.2612 3.9364,-1.3927 2.299,-0.4899 6.3787,-3.7317 6.3787,-5.0686 0,-0.7618 0.3787,-1.385 0.8417,-1.385 0.9606,0 3.1709,-6.7833 3.1333,-9.6161 -0.019,-1.4639 -0.9155,-0.9405 -4.0193,2.348 -2.1969,2.3276 -4.3232,4.2884 -4.725,4.3573 -0.4019,0.069 -2.4086,0.9812 -4.4594,2.0274 -19.5051,9.9508 -52.1182,3.127 -73.8047,-15.4424 l -3.3001,-2.8257 4.1991,-3.8383 4.1991,-3.8384 2.9425,2.6876 c 14.7228,13.4472 43.9002,20.2907 59.1323,13.8692 5.8309,-2.4581 14.8605,-11.6123 14.8605,-15.0654 0,-0.2399 -1.9272,-0.7251 -4.2826,-1.0784 -7.3099,-1.0961 -10.1987,-3.6257 -14.6058,-12.78937 -6.1304,-12.74683 -11.9808,-34.21492 -15.7502,-57.79546 -2.2956,-14.3607 -1.4591,-24.72669 2.1587,-26.75134 1.1256,-0.62988 0.8716,-2.63964 -1.4225,-11.25771 l -2.7926,-10.49095 -3.4025,-0.2623 c -20.4329,-1.57518 -36.1643,-10.3348 -46.093,-25.66557 -10.9318,-16.87967 -10.9318,-40.2646 0,-57.14426 22.5741,-34.85635 73.593,-33.04519 92.9649,3.30023 7.8445,14.71787 8.1731,34.57484 0.8126,49.10025 -2.5799,5.09113 -10.0602,15.13595 -12.266,16.47134 -0.7266,0.43983 -1.3823,2.01483 -1.4572,3.5 -0.1116,2.21256 -0.2122,2.31107 -0.5571,0.54539 -0.4087,-2.09222 -0.5709,-2.05614 -5.576,1.24011 -2.8353,1.86726 -7.3266,4.1163 -9.9808,4.99787 -3.6423,1.2098 -4.7082,2.00918 -4.3464,3.25989 0.2637,0.91138 1.4704,5.348 2.6817,9.85917 2.0692,7.70646 2.39,8.24251 5.3085,8.87044 1.7085,0.36757 4.3117,1.28411 5.7851,2.03675 2.3867,1.21919 2.7285,1.17879 3.134,-0.37044 0.398,-1.5206 0.4697,-1.50005 0.5712,0.16372 0.148,2.42739 11.8101,13.91879 12.4728,12.29018 0.2669,-0.65602 0.5216,-0.29277 0.566,0.80723 0.044,1.1 2.7915,5.6 6.1045,10 3.3131,4.4 8.1006,11.6 10.6389,16 2.5382,4.4 5.5749,9.575 6.748,11.5 7.7122,12.65492 9.1587,24.27859 4.2622,34.25 -1.5529,3.1625 -3.1518,5.75003 -3.553,5.75003 -0.4012,0 -2.5915,-1.3694 -4.8673,-3.04307 l -4.1379,-3.04303 1.8904,-3.20697 c 4.0211,-6.82147 3.6682,-10.13571 -2.3643,-22.20696 -7.189,-14.3852 -10.2172,-19.20549 -10.9318,-17.40086 -0.3053,0.77117 -0.5901,0.24435 -0.6336,-1.17203 -0.1463,-4.76791 -22.7436,-32.43318 -23.8299,-29.1743 -0.1815,0.54473 1.987,7.46068 4.819,15.3688 11.076,30.92902 26.0787,63.87842 29.0854,63.87842 1.5716,0 1.8466,0.8189 1.8466,5.5 0,4.7259 -0.2659,5.5 -1.8894,5.5 -1.7434,0 -1.849,0.6458 -1.3675,8.3636 0.6637,10.6392 -0.8995,17.2361 -5.5958,23.6147 -5.8253,7.912 -14.2799,11.6563 -28.6473,12.6872 -4.4,0.3157 -8.3306,1.0826 -8.7347,1.7043 -0.4775,0.7345 -0.7401,0.5657 -0.75,-0.4822 z m 27.337,-66.63763 c -5.8587,-12.6221 -17.3579,-40.2483 -19.6676,-47.25 -3.0983,-9.39207 -3.1877,-5.17107 -0.198,9.341 2.9443,14.29193 8.6046,32.91975 12.1032,39.83134 2.3746,4.6912 3.5928,5.497 8.6348,5.71166 l 2.7248,0.116 z"
         style="opacity:1;fill:#ffffff;fill-opacity:0.995283;fill-rule:nonzero;stroke:#000000;stroke-width:1.88976383;stroke-linecap:round;stroke-miterlimit:4;stroke-dasharray:none;stroke-opacity:1" />
    </g>
    <g
       inkscape:export-ydpi="311.70218"
       inkscape:export-xdpi="311.70218"
       inkscape:export-filename="/home/gilzoide/prog/Godot/GameJam21-10-18/sprites/danca12.png"
       id="g2736"
       transform="matrix(-0.51843584,0,0,0.51843584,306.02051,-109.99041)">
      <g
         id="g2732"
         transform="translate(-59.999996,0.04496508)">
        <path
           transform="matrix(1.7717915,-0.49475951,0.49475951,1.7717915,-579.68918,84.266768)"
           inkscape:transform-center-y="-0.95743249"
           inkscape:transform-center-x="-0.098733636"
           d="m 588.92205,262.4239 11.52102,6.50565 -12.72373,-3.62824 6.17487,11.70164 -8.74231,-9.93123 -1.13174,13.18243 -1.98527,-13.08113 -8.07905,10.4779 5.40208,-12.07787 -12.46131,4.44671 11.07431,-7.23997 -12.88719,-2.99628 13.23052,-0.10343 -9.22148,-9.48797 11.18613,7.06595 -2.62801,-12.9673 5.59023,11.99194 4.79982,-12.3296 -1.78052,13.11057 10.70375,-7.77734 -8.58599,10.06669 13.20932,-0.75583 z"
           inkscape:randomized="0"
           inkscape:rounded="0"
           inkscape:flatsided="false"
           sodipodi:arg2="0.39591196"
           sodipodi:arg1="0.11031263"
           sodipodi:r2="18.44931"
           sodipodi:r1="5.5347929"
           sodipodi:cy="261.81458"
           sodipodi:cx="583.4209"
           sodipodi:sides="11"
           id="path2714"
           style="opacity:1;fill:#ffff00;fill-opacity:1;fill-rule:nonzero;stroke:#1a0000;stroke-width:0.2034265;stroke-linecap:round;stroke-miterlimit:4;stroke-dasharray:none;stroke-opacity:1"
           sodipodi:type="star" />
        <ellipse
           transform="scale(1,-1)"
           ry="14.380456"
           rx="14.380455"
           cy="-218.36179"
           cx="573.38971"
           id="ellipse2716"
           style="opacity:1;fill:#000000;fill-opacity:1;stroke:#000000;stroke-width:0.20199859;stroke-linecap:round;stroke-miterlimit:4;stroke-dasharray:none;stroke-opacity:1" />
        <path
           style="fill:none;stroke:#000000;stroke-width:3.21810102;stroke-linecap:butt;stroke-linejoin:miter;stroke-miterlimit:4;stroke-dasharray:none;stroke-opacity:1"
           d="m 562.60393,265.14196 c 4.55681,4.86124 19.64284,10.55876 23.66077,-1.53623"
           id="path2718"
           inkscape:connector-curvature="0"
           sodipodi:nodetypes="cc" />
        <path
           inkscape:connector-curvature="0"
           id="path2720"
           d="m 564.07744,271.66186 c 5.00133,2.48804 27.09043,9.81081 22.18726,-8.05613"
           style="fill:none;stroke:#000000;stroke-width:3.21810102;stroke-linecap:butt;stroke-linejoin:miter;stroke-miterlimit:4;stroke-dasharray:none;stroke-opacity:1"
           sodipodi:nodetypes="cc" />
        <path
           style="fill:none;stroke:#000000;stroke-width:3.21810102;stroke-linecap:butt;stroke-linejoin:miter;stroke-miterlimit:4;stroke-dasharray:none;stroke-opacity:1"
           d="m 590.31022,261.37922 c 0.9604,-1.25286 2.2075,-3.53361 1.38208,-5.70886 -2.19059,-5.77291 -9.58433,-17.04461 -13.03467,-16.64082"
           id="path2722"
           inkscape:connector-curvature="0"
           sodipodi:nodetypes="csc" />
        <path
           inkscape:connector-curvature="0"
           id="path2724"
           d="m 589.35444,263.47731 c -1.2875,0.017 -4.41731,-0.21858 -7.04624,-0.80892 -3.13317,-0.70357 -7.54003,-22.05626 -5.76722,-23.10968"
           style="fill:none;stroke:#000000;stroke-width:3.21810102;stroke-linecap:butt;stroke-linejoin:miter;stroke-miterlimit:4;stroke-dasharray:none;stroke-opacity:1"
           sodipodi:nodetypes="csc" />
        <rect
           y="197"
           x="550"
           height="100"
           width="70"
           id="rect2726"
           style="opacity:1;fill:none;fill-opacity:1;stroke:none;stroke-width:3.60394764;stroke-linecap:round;stroke-miterlimit:4;stroke-dasharray:none;stroke-opacity:1" />
        <rect
           style="opacity:1;fill:none;fill-opacity:1;stroke:none;stroke-width:3.60394764;stroke-linecap:round;stroke-miterlimit:4;stroke-dasharray:none;stroke-opacity:1"
           id="rect2728"
           width="70"
           height="100"
           x="550"
           y="197" />
        <path
           sodipodi:nodetypes="cc"
           style="fill:none;stroke:#000000;stroke-width:2.91299868;stroke-linecap:butt;stroke-linejoin:miter;stroke-miterlimit:4;stroke-dasharray:none;stroke-opacity:1"
           d="m 587.48078,263.51219 c -6.76084,-13.18157 -12.86094,-30.18287 -14.00017,-44.57965"
           id="path2730"
           inkscape:connector-curvature="0" />
      </g>
      <path
         style="opacity:1;fill:#ffffff;fill-opacity:0.995283;fill-rule:nonzero;stroke:#000000;stroke-width:1.88976383;stroke-linecap:round;stroke-miterlimit:4;stroke-dasharray:none;stroke-opacity:1"
         d="m 1953.0978,1058.7382 c -0.012,-1.2155 -1.4305,-1.7775 -5.7653,-2.2836 -3.1625,-0.3693 -9.8,-1.6606 -14.75,-2.8696 -4.95,-1.209 -9.5625,-2.1439 -10.25,-2.0774 -0.6875,0.066 -1.25,-0.2208 -1.25,-0.6382 0,-0.7971 -8.9559,-3.631 -10.25,-3.2434 -0.4125,0.1235 -0.75,-0.135 -0.75,-0.5745 0,-0.4396 -1.569,-1.3665 -3.4865,-2.0599 l -3.4866,-1.2607 2.5034,-4.9402 c 1.3769,-2.7171 2.6432,-4.9401 2.8141,-4.9401 0.1709,0 3.1865,1.1685 6.7012,2.5967 7.9986,3.25 18.8589,6.2167 30.258,8.2655 7.7352,1.3902 8.9167,1.4035 9.7347,0.11 0.63,-0.9962 0.936,-1.0681 0.9464,-0.2222 0.02,1.6295 11.7829,1.7017 15.7002,0.096 1.5483,-0.6345 3.3197,-1.2612 3.9364,-1.3927 2.299,-0.4899 6.3787,-3.7317 6.3787,-5.0686 0,-0.7618 0.3787,-1.385 0.8417,-1.385 0.9606,0 3.1709,-6.7833 3.1333,-9.6161 -0.019,-1.4639 -0.9155,-0.9405 -4.0193,2.348 -2.1969,2.3276 -4.3232,4.2884 -4.725,4.3573 -0.4019,0.069 -2.4086,0.9812 -4.4594,2.0274 -19.5051,9.9508 -52.1182,3.127 -73.8047,-15.4424 l -3.3001,-2.8257 4.1991,-3.8383 4.1991,-3.8384 2.9425,2.6876 c 14.7228,13.4472 43.9002,20.2907 59.1323,13.8692 5.8309,-2.4581 14.8605,-11.6123 14.8605,-15.0654 0,-0.2399 -1.9272,-0.7251 -4.2826,-1.0784 -7.3099,-1.0961 -10.1987,-3.6257 -14.6058,-12.78937 -6.1304,-12.74683 -11.9808,-34.21492 -15.7502,-57.79546 -2.2956,-14.3607 -1.4591,-24.72669 2.1587,-26.75134 1.1256,-0.62988 0.8716,-2.63964 -1.4225,-11.25771 l -2.7926,-10.49095 -3.4025,-0.2623 c -20.4329,-1.57518 -36.1643,-10.3348 -46.093,-25.66557 -10.9318,-16.87967 -10.9318,-40.2646 0,-57.14426 22.5741,-34.85635 73.593,-33.04519 92.9649,3.30023 7.8445,14.71787 8.1731,34.57484 0.8126,49.10025 -2.5799,5.09113 -10.0602,15.13595 -12.266,16.47134 -0.7266,0.43983 -1.3823,2.01483 -1.4572,3.5 -0.1116,2.21256 -0.2122,2.31107 -0.5571,0.54539 -0.4087,-2.09222 -0.5709,-2.05614 -5.576,1.24011 -2.8353,1.86726 -7.3266,4.1163 -9.9808,4.99787 -3.6423,1.2098 -4.7082,2.00918 -4.3464,3.25989 0.2637,0.91138 1.4704,5.348 2.6817,9.85917 2.0692,7.70646 2.39,8.24251 5.3085,8.87044 1.7085,0.36757 4.3117,1.28411 5.7851,2.03675 2.3867,1.21919 2.7285,1.17879 3.134,-0.37044 0.398,-1.5206 0.4697,-1.50005 0.5712,0.16372 0.148,2.42739 11.8101,13.91879 12.4728,12.29018 0.2669,-0.65602 0.5216,-0.29277 0.566,0.80723 0.044,1.1 2.7915,5.6 6.1045,10 3.3131,4.4 8.1006,11.6 10.6389,16 2.5382,4.4 5.5749,9.575 6.748,11.5 7.7122,12.65492 9.1587,24.27859 4.2622,34.25 -1.5529,3.1625 -3.1518,5.75003 -3.553,5.75003 -0.4012,0 -2.5915,-1.3694 -4.8673,-3.04307 l -4.1379,-3.04303 1.8904,-3.20697 c 4.0211,-6.82147 3.6682,-10.13571 -2.3643,-22.20696 -7.189,-14.3852 -10.2172,-19.20549 -10.9318,-17.40086 -0.3053,0.77117 -0.5901,0.24435 -0.6336,-1.17203 -0.1463,-4.76791 -22.7436,-32.43318 -23.8299,-29.1743 -0.1815,0.54473 1.987,7.46068 4.819,15.3688 11.076,30.92902 26.0787,63.87842 29.0854,63.87842 1.5716,0 1.8466,0.8189 1.8466,5.5 0,4.7259 -0.2659,5.5 -1.8894,5.5 -1.7434,0 -1.849,0.6458 -1.3675,8.3636 0.6637,10.6392 -0.8995,17.2361 -5.5958,23.6147 -5.8253,7.912 -14.2799,11.6563 -28.6473,12.6872 -4.4,0.3157 -8.3306,1.0826 -8.7347,1.7043 -0.4775,0.7345 -0.7401,0.5657 -0.75,-0.4822 z m 27.337,-66.63763 c -5.8587,-12.6221 -17.3579,-40.2483 -19.6676,-47.25 -3.0983,-9.39207 -3.1877,-5.17107 -0.198,9.341 2.9443,14.29193 8.6046,32.91975 12.1032,39.83134 2.3746,4.6912 3.5928,5.497 8.6348,5.71166 l 2.7248,0.116 z"
         id="path2734"
         inkscape:connector-curvature="0"
         transform="matrix(0.26458333,0,0,0.26458333,0,-3)" />
    </g>
    <path
       style="opacity:1;fill:#7736be;fill-opacity:0.83333333;fill-rule:nonzero;stroke:none;stroke-width:0.10473985;stroke-linecap:butt;stroke-linejoin:round;stroke-miterlimit:4;stroke-dasharray:none;stroke-opacity:1"
       d="m -17.004101,33.396945 c -0.05602,-0.05076 -0.974777,-0.258545 -2.041709,-0.4618 -1.066931,-0.203253 -2.095744,-0.451626 -2.286268,-0.551939 -0.190523,-0.100316 -0.533465,-0.22419 -0.762094,-0.275283 -0.228631,-0.05109 -0.633925,-0.19986 -0.900656,-0.330593 -0.266733,-0.130732 -0.503228,-0.245568 -0.525546,-0.255185 -0.02233,-0.0096 0.06808,-0.245334 0.20087,-0.523815 0.171925,-0.360527 0.30331,-0.480973 0.456267,-0.418273 2.667308,1.093367 6.400136,1.756212 8.087781,1.436156 0.860449,-0.16318 1.616384,-0.538018 1.816667,-0.900814 0.0816,-0.147718 0.191135,-0.301025 0.24353,-0.34068 0.169727,-0.128466 0.389708,-0.835929 0.389708,-1.25326 0,-0.506869 -0.255556,-0.525686 -0.700926,-0.05162 -1.219128,1.297701 -3.992193,1.824998 -6.450746,1.226603 -1.251574,-0.304626 -3.043476,-1.139629 -4.168667,-1.942549 l -0.902271,-0.643847 0.417785,-0.417783 0.417785,-0.417787 0.601365,0.488326 c 1.519603,1.233961 3.730843,1.967538 5.936008,1.969267 1.769693,0.0014 2.375587,-0.241444 3.457963,-1.385893 0.887154,-0.938034 0.906269,-1.312833 0.07535,-1.477978 -0.817117,-0.162406 -1.17802,-0.391977 -1.55498,-0.989118 -0.833827,-1.320875 -1.840758,-4.664385 -2.404711,-7.98484 -0.353799,-2.083033 -0.327219,-3.571379 0.07159,-4.012109 0.260853,-0.288247 0.259977,-0.312316 -0.06075,-1.671141 -0.179013,-0.758275 -0.36171,-1.437328 -0.406015,-1.509008 -0.04435,-0.07169 -0.56309,-0.197447 -1.152858,-0.279476 -2.079855,-0.289281 -3.666803,-1.0706222 -4.876812,-2.4011156 -2.556365,-2.8109171 -2.497712,-6.8605178 0.139863,-9.6564864 1.441379,-1.5279385 3.071075,-2.2279 5.187129,-2.2279 2.068039,0 3.564548,0.6188628 4.989241,2.0632491 1.476992,1.4973922 2.077436,2.9635542 2.077436,5.0726985 0,1.9925267 -0.552928,3.3892161 -1.973465,4.9849451 -0.500073,0.5617378 -0.972719,0.8947931 -1.977579,1.3934866 -0.726242,0.3604267 -1.348484,0.7007037 -1.382766,0.7561717 -0.08911,0.144293 0.568068,2.470532 0.765083,2.707922 0.09064,0.109198 0.496223,0.303017 0.90132,0.430712 1.022377,0.322275 2.229827,1.514906 3.631666,3.587069 2.2844046,3.376766 3.0086858,4.877391 3.012481,6.241526 0.00278,1.064134 -0.5271683,2.342939 -0.8844293,2.133487 -0.7148697,-0.419094 -0.7302727,-0.461823 -0.4195549,-1.164259 0.2156996,-0.487626 0.2646894,-0.791636 0.1944994,-1.207062 -0.1149674,-0.680289 -1.6228482,-3.703435 -2.0055642,-4.020848 -0.152557,-0.126534 -0.277381,-0.291446 -0.277381,-0.366483 0,-0.248806 -1.536408,-2.300456 -2.32896,-3.11 -0.702581,-0.717633 -1.273651,-1.015951 -1.273651,-0.665322 0,0.321379 0.80024,2.611865 1.687659,4.830427 1.244651,3.111723 2.236889,5.228729 2.752421,5.872522 0.456561,0.570144 0.565787,1.408083 0.201742,1.547778 -0.167043,0.0641 -0.207845,0.37439 -0.207845,1.581082 0,1.337319 -0.0392,1.579943 -0.358637,2.221013 -0.492414,0.988147 -1.296644,1.641934 -2.409396,1.958688 -1.045801,0.297694 -2.869988,0.546112 -3.019015,0.411126 z m 4.347605,-8.057968 c -0.107877,-0.247681 -0.596997,-1.354444 -1.086992,-2.459478 -0.489981,-1.105033 -1.191616,-2.788561 -1.559178,-3.741177 -0.738837,-1.914834 -0.828058,-2.06985 -1.058632,-1.839287 -0.349657,0.34967 1.310657,6.754627 2.039206,7.866525 0.291631,0.445088 0.635991,0.603098 1.34024,0.614959 l 0.521468,0.0088 z"
       id="path2750"
       inkscape:connector-curvature="0"
       inkscape:export-xdpi="311.70218"
       inkscape:export-ydpi="311.70218" />
    <path
       style="opacity:1;fill:#217310;fill-opacity:1;fill-rule:nonzero;stroke:none;stroke-width:0.10473985;stroke-linecap:butt;stroke-linejoin:round;stroke-miterlimit:4;stroke-dasharray:none;stroke-opacity:1"
       d="m 38.130642,33.396945 c 0.05602,-0.05076 0.974777,-0.258545 2.041709,-0.4618 1.066931,-0.203253 2.095758,-0.451626 2.286267,-0.551939 0.190538,-0.100316 0.533466,-0.22419 0.762094,-0.275283 0.228629,-0.05109 0.63392,-0.199858 0.900653,-0.330593 0.266733,-0.130732 0.50323,-0.245568 0.525556,-0.255185 0.02224,-0.0096 -0.06798,-0.245334 -0.200881,-0.523814 -0.171922,-0.360528 -0.303308,-0.480974 -0.456269,-0.418274 -2.667301,1.093367 -6.400129,1.756212 -8.087788,1.436156 -0.860435,-0.16318 -1.616356,-0.538018 -1.816653,-0.900814 -0.0816,-0.147718 -0.191135,-0.301025 -0.243517,-0.34068 -0.16974,-0.128466 -0.389721,-0.835929 -0.389721,-1.25326 0,-0.506869 0.255556,-0.525686 0.700926,-0.05162 1.219128,1.297701 3.992207,1.824998 6.450746,1.226603 1.251574,-0.304623 3.043482,-1.139627 4.168676,-1.942547 l 0.902265,-0.643847 -0.417789,-0.417784 -0.41779,-0.417786 -0.601362,0.488325 c -1.5196,1.233961 -3.73084,1.96754 -5.936005,1.969268 -1.769693,0.0014 -2.375587,-0.241445 -3.457963,-1.385894 -0.887154,-0.938034 -0.906255,-1.312832 -0.07535,-1.477977 0.817104,-0.162405 1.178021,-0.391978 1.554981,-0.989118 0.833827,-1.320876 1.840758,-4.664386 2.40471,-7.984842 0.353786,-2.083031 0.327206,-3.571376 -0.07159,-4.012108 -0.260866,-0.288247 -0.25999,-0.312315 0.06075,-1.67114 0.179013,-0.758275 0.36171,-1.437329 0.406015,-1.50901 0.04435,-0.07169 0.56309,-0.197444 1.152858,-0.279474 2.079855,-0.289282 3.666795,-1.0706214 4.876803,-2.4011162 2.556379,-2.8109172 2.497714,-6.8605178 -0.139865,-9.656485 -1.441375,-1.52794 -3.071064,-2.2279 -5.187132,-2.2279 -2.068025,0 -3.564534,0.6188614 -4.989227,2.0632477 -1.476992,1.49739358 -2.077436,2.9635541 -2.077436,5.0726999 0,1.9925253 0.552928,3.3892147 1.973465,4.9849437 0.500073,0.5617392 0.972719,0.8947931 1.977565,1.3934862 0.726255,0.3604267 1.348512,0.7007037 1.382779,0.7561737 0.08911,0.144293 -0.568067,2.47053 -0.765096,2.70792 -0.09064,0.109199 -0.496209,0.303017 -0.90132,0.430713 -1.022363,0.322274 -2.229827,1.514906 -3.631652,3.587068 -2.284405,3.376766 -3.008686,4.877392 -3.012481,6.241526 -0.0028,1.064135 0.527168,2.34294 0.884429,2.133488 0.71487,-0.419095 0.730273,-0.461823 0.419555,-1.164259 -0.2157,-0.487625 -0.264689,-0.791637 -0.194513,-1.207063 0.114967,-0.680289 1.622862,-3.703434 2.005577,-4.020847 0.152558,-0.126534 0.277382,-0.291448 0.277382,-0.366484 0,-0.248805 1.536408,-2.300456 2.328946,-3.109998 0.702595,-0.717633 1.273665,-1.015952 1.273665,-0.665324 0,0.321379 -0.800255,2.611865 -1.687645,4.830427 -1.244679,3.111724 -2.236903,5.228731 -2.752449,5.872522 -0.456547,0.570144 -0.565774,1.408083 -0.201728,1.547777 0.167043,0.0641 0.207845,0.374392 0.207845,1.581083 0,1.337319 0.0392,1.579944 0.358623,2.221013 0.492414,0.988149 1.296644,1.641936 2.40941,1.95869 1.045801,0.297695 2.869988,0.546109 3.019015,0.411123 z m -4.347605,-8.057968 c 0.107877,-0.24768 0.596997,-1.354444 1.086992,-2.459478 0.489981,-1.105033 1.19163,-2.788561 1.559178,-3.741177 0.738836,-1.914834 0.828072,-2.06985 1.058632,-1.839287 0.349671,0.34967 -1.310657,6.754627 -2.039192,7.866525 -0.291645,0.445088 -0.636005,0.603098 -1.340254,0.614961 l -0.521454,0.0088 z"
       id="path2754"
       inkscape:connector-curvature="0"
       inkscape:export-xdpi="311.70218"
       inkscape:export-ydpi="311.70218" />
    <text
       xml:space="preserve"
       style="font-style:normal;font-weight:normal;font-size:10.24198914px;line-height:1.25;font-family:sans-serif;letter-spacing:0px;word-spacing:0px;fill:#ffff00;fill-opacity:1;stroke:#000000;stroke-width:0.13716947;stroke-opacity:1"
       x="-14.460049"
       y="-7.4166389"
       id="text2768"
       inkscape:export-xdpi="311.70218"
       inkscape:export-ydpi="311.70218"><tspan
         sodipodi:role="line"
         id="tspan2766"
         x="-14.460049"
         y="-7.4166389"
         style="font-size:10.24198914px;fill:#ffff00;fill-opacity:1;stroke:#000000;stroke-width:0.13716947;stroke-opacity:1">Por um Fio</tspan></text>
  </g>
</svg>
